<svg xmlns="http://www.w3.org/2000/svg" xmlns:xlink="http://www.w3.org/1999/xlink" width="146.415" height="32"
     viewBox="0 0 146.415 32">
    <defs>
        <style>.a{fill:none;}.b{clip-path:url(#a);}.c{fill:#cc0214;}.d{fill:#fff;}.e{fill:#0a0a0a;}.f{fill:#1a1311;}
        </style>
        <clipPath id="a">
            <rect class="a" width="146.415" height="32" transform="translate(0 0)"/>
        </clipPath>
    </defs>
    <g transform="translate(0 -0.001)">
        <g class="b" transform="translate(0 0.001)">
            <path class="c"
                  d="M18.459,0c-5.191.007-6.513,5.379-6.513,5.379S10.624.007,5.433,0C2.776,0-.286,2.8.022,6.707c.36,4.561,3.305,9.461,11.924,15.812C20.565,16.169,23.51,11.268,23.87,6.707,24.178,2.8,21.116,0,18.459,0"
                  transform="translate(0 0)"/>
            <path class="d" d="M21.577,20.275a1.968,1.968,0,0,1-3.913,0,1.968,1.968,0,0,1,3.913,0"
                  transform="translate(-10.133 -10.627)"/>
            <path class="d" d="M34.972,20.275a1.968,1.968,0,0,1-3.913,0,1.968,1.968,0,0,1,3.913,0"
                  transform="translate(-17.817 -10.627)"/>
            <path d="M96.253,5.119l-6.885,17.5H86.557C84.394,16.5,79.712,5.247,79.712,5.247l-.038,17.321H76.333V1.521h5.08l6.465,16.763.19,0,6.5-16.768h5.011v21.1h-3.36Z"
                  transform="translate(-43.789 -0.873)"/>
            <path d="M142.064,16.2c.562,2.315,1.847,3.487,4.156,3.5,2.734,0,3.852-1.387,3.852-3.208,0-1.926-.219-2.515-4.569-3.963-4.435-.97-6.214-3.2-6.214-6.062,0-3.83,2.816-5.956,6.436-5.956,5.366,0,6.72,2.838,7.361,5.042l-3.435.583a3.677,3.677,0,0,0-4-2.92,2.779,2.779,0,0,0-2.812,2.9c0,1.6.438,2.333,3.414,3.37,5.951,1.328,7.368,3.687,7.368,6.639,0,3.43-1.871,6.209-7.582,6.209-4.011-.073-6.844-1.722-7.364-5.585Z"
                  transform="translate(-79.551 -0.29)"/>
            <path d="M182.023,1.674H190.1c3.544.113,6.172,2.312,6.172,6.308,0,4.185-2.307,6.559-6.125,6.559h-4.381v8.229h-3.739Zm3.73,10.38h3.714a3.915,3.915,0,0,0,3.2-4.015A3.808,3.808,0,0,0,189.682,4.4l-3.937,0Z"
                  transform="translate(-104.419 -0.961)"/>
            <rect width="3.67" height="21.097" transform="translate(95.502 0.713)"/>
            <rect width="3.67" height="21.097" transform="translate(123.498 0.713)"/>
            <path d="M245.1,1.673h8.624c3.786.108,6.431,2.176,6.431,5.994a6.2,6.2,0,0,1-6.381,6.3l-4.984.077-.008,8.627H245.1Zm3.69,9.916h4.263a3.91,3.91,0,0,0,3.418-3.836c0-2.386-2.546-3.473-3.189-3.473l-4.492-.04Z"
                  transform="translate(-140.606 -0.96)"/>
            <path d="M268.221,36.358l-4.28-.012-6.421-10.774,3.67-.036Z" transform="translate(-147.729 -14.649)"/>
            <rect width="3.67" height="21.097" transform="translate(136.362 0.713)"/>
            <rect class="e" width="16.207" height="3.064" transform="translate(130.208 0.549)"/>
            <path class="f" d="M7.83,67.458H6.445v1.12H7.728v.38H6.445v1.464H5.982V67.073H7.83Z"
                  transform="translate(-3.432 -38.477)"/>
            <path class="f"
                  d="M33.689,69.057a1.238,1.238,0,0,1-1.38,1.42q-1.322,0-1.322-1.37V67.073h.463v2.014q0,1.005.9,1.005.874,0,.873-.973V67.073h.463Z"
                  transform="translate(-17.776 -38.477)"/>
            <path class="f"
                  d="M86.585,69.057a1.238,1.238,0,0,1-1.38,1.42q-1.322,0-1.322-1.37V67.073h.463v2.014q0,1.005.9,1.005.874,0,.873-.973V67.073h.463Z"
                  transform="translate(-48.12 -38.477)"/>
            <path class="f" d="M140.389,70.421H138.46V67.073h1.848v.385h-1.385v1.072h1.283v.382h-1.283v1.126h1.466Z"
                  transform="translate(-79.429 -38.477)"/>
            <path class="f" d="M218.564,70.421h-1.929V67.073h1.848v.385H217.1v1.072h1.282v.382H217.1v1.126h1.465Z"
                  transform="translate(-124.274 -38.477)"/>
            <path class="f"
                  d="M244.381,70.421h-.512L243.5,69.5H242.01l-.345.917h-.512l1.366-3.348h.5Zm-1.021-1.295-.542-1.392a1.541,1.541,0,0,1-.055-.233h-.011a1.241,1.241,0,0,1-.058.233l-.537,1.392Z"
                  transform="translate(-138.339 -38.477)"/>
            <path class="f" d="M271.2,70.421H269.3V67.073h.463v2.966H271.2Z" transform="translate(-154.488 -38.477)"/>
            <path class="f" d="M191.675,70.421h-.463V68.912H189.4v1.509h-.463V67.073h.463v1.455h1.815V67.073h.463Z"
                  transform="translate(-108.383 -38.477)"/>
            <path class="f" d="M322.594,70.421h-.463V68.912h-1.815v1.509h-.463V67.073h.463v1.455h1.815V67.073h.463Z"
                  transform="translate(-183.486 -38.477)"/>
            <path class="f"
                  d="M111.728,67.12h.472v3.328h-.472Zm.206,1.478h1.149a.446.446,0,0,0,.238-.064.424.424,0,0,0,.161-.182.677.677,0,0,0,0-.542.425.425,0,0,0-.16-.182.444.444,0,0,0-.24-.064h-1.149V67.12h1.13a1.064,1.064,0,0,1,.512.119.84.84,0,0,1,.343.337,1.1,1.1,0,0,1,0,1.009.848.848,0,0,1-.344.337,1.056,1.056,0,0,1-.51.119h-1.13Zm.917.341.47-.105.862,1.615h-.561Z"
                  transform="translate(-64.094 -38.504)"/>
            <path class="f" d="M60.167,67.458H59.132v2.963h-.465V67.458h-1.03v-.385h2.531Z"
                  transform="translate(-33.064 -38.477)"/>
            <path class="f" d="M295.92,67.458h-1.035v2.963h-.465V67.458h-1.03v-.385h2.531Z"
                  transform="translate(-168.305 -38.477)"/>
        </g>
    </g>
</svg>
