<svg xmlns="http://www.w3.org/2000/svg" width="32" height="32" viewBox="0 0 32 32"><defs><style>.a{fill:#cc0214;}.b{fill:#fff;}.c{fill:none;}</style></defs><g transform="translate(-506 -84)"><g transform="translate(22.207 -1.74)"><path class="a" d="M23.179,0C16.661.009,15,6.754,15,6.754S13.34.009,6.822,0C3.486,0-.36,3.522.028,8.422.48,14.149,4.178,20.3,15,28.278,25.823,20.3,29.521,14.149,29.974,8.422,30.361,3.522,26.515,0,23.179,0" transform="translate(484.792 87.74)"/><path class="b" d="M22.577,20.722a2.338,2.338,0,0,1-2.457,2.2,2.337,2.337,0,0,1-2.456-2.2,2.337,2.337,0,0,1,2.456-2.2,2.338,2.338,0,0,1,2.457,2.2" transform="translate(476.585 79.133)"/><path class="b" d="M35.972,20.722a2.472,2.472,0,0,1-4.913,0,2.472,2.472,0,0,1,4.913,0" transform="translate(470.361 79.133)"/></g><rect class="c" width="32" height="32" transform="translate(506 84)"/></g></svg>